<svg width="27" height="28" viewBox="0 0 27 28" fill="none" xmlns="http://www.w3.org/2000/svg">
<g clip-path="url(#clip0_6001_170)">
<path fill-rule="evenodd" clip-rule="evenodd" d="M-1893 -60C-1893 -65.5228 -1888.52 -70 -1883 -70H17C22.5228 -70 27 -65.5228 27 -60V24.99C27 24.9955 26.9955 25 26.99 25C26.9846 25 26.9802 24.9957 26.98 24.9903C26.4502 11.6513 15.4689 1 2 1H-256.481C-261.545 1 -265.704 -2.8327 -267.188 -7.67391C-273.458 -28.1277 -292.492 -43 -315 -43H-1342C-1364.51 -43 -1383.54 -28.1277 -1389.81 -7.6739C-1391.3 -2.8327 -1395.46 1 -1400.52 1H-1868C-1881.47 1 -1892.45 11.6513 -1892.98 24.9903C-1892.98 24.9957 -1892.98 25 -1892.99 25C-1893 25 -1893 24.9955 -1893 24.99V-60Z" fill="#7027E2"/>
</g>
<defs>
<clipPath id="clip0_6001_170">
<rect width="27" height="28" fill="white"/>
</clipPath>
</defs>
</svg>
