<svg width="27" height="28" viewBox="0 0 27 28" fill="none" xmlns="http://www.w3.org/2000/svg">
<g clip-path="url(#clip0_6001_170)">
<path fill-rule="evenodd" clip-rule="evenodd" d="M0 -60C0 -65.5228 4.47711 -70 9.99996 -70H1910C1915.52 -70 1920 -65.5228 1920 -60V24.99C1920 24.9955 1920 25 1919.99 25C1919.98 25 1919.98 24.9957 1919.98 24.9903C1919.45 11.6513 1908.47 1 1895 1H1636.52C1631.46 1 1627.3 -2.8327 1625.81 -7.67391C1619.54 -28.1277 1600.51 -43 1578 -43H551C528.492 -43 509.458 -28.1277 503.188 -7.6739C501.704 -2.8327 497.544 1 492.481 1H25C11.531 1 0.549843 11.6513 0.0200166 24.9903C0.0198033 24.9957 0.0153857 25 0.0100103 25C0.00448174 25 0 24.9955 0 24.99V-60Z" fill="#7027E2"/>
</g>
<defs>
<clipPath id="clip0_6001_170">
<rect width="27" height="28" fill="white"/>
</clipPath>
</defs>
</svg>
