<svg width="60" height="71" viewBox="0 0 60 71" fill="none" xmlns="http://www.w3.org/2000/svg">
<g clip-path="url(#clip0_6001_170)">
<path fill-rule="evenodd" clip-rule="evenodd" d="M-1578 10C-1578 4.47715 -1573.52 0 -1568 0H332C337.523 0 342 4.47715 342 10V94.99C342 94.9955 341.996 95 341.99 95V95C341.985 95 341.98 94.9957 341.98 94.9903C341.45 81.6513 330.469 71 317 71H58.519C53.4555 71 49.2962 67.1673 47.8122 62.3261C41.5424 41.8723 22.508 27 0 27H-1027C-1049.51 27 -1068.54 41.8723 -1074.81 62.3261C-1076.3 67.1673 -1080.46 71 -1085.52 71H-1553C-1566.47 71 -1577.45 81.6513 -1577.98 94.9903C-1577.98 94.9957 -1577.98 95 -1577.99 95V95C-1578 95 -1578 94.9955 -1578 94.99V10Z" fill="#7027E2"/>
<rect x="59" width="21" height="71" fill="#7027E2"/>
</g>
<defs>
<clipPath id="clip0_6001_170">
<rect width="60" height="71" fill="white"/>
</clipPath>
</defs>
</svg>
