<svg width="56" height="64" viewBox="0 0 56 64" fill="none" xmlns="http://www.w3.org/2000/svg">
<g clip-path="url(#clip0_6111_355)">
<path d="M424 94.6808C424 94.8571 423.857 95 423.681 95V95C423.474 95 423.321 94.8057 423.368 94.6037C423.78 92.8022 424 90.9267 424 89C424 75.1929 412.807 64 399 64H216.126C211.602 64 207.736 60.9118 205.904 56.7751C198.138 39.2365 180.581 27.0002 160.165 27H56.3682C35.9524 27.0002 18.3952 39.2365 10.6288 56.7751C8.79709 60.9118 4.93123 64 0.407171 64H-319C-332.807 64 -344 75.1929 -344 89C-344 90.9267 -343.78 92.8022 -343.368 94.6037C-343.321 94.8057 -343.474 95 -343.681 95V95C-343.857 95 -344 94.8571 -344 94.6808V10C-344 4.47715 -339.523 0 -334 0H414C419.523 0 424 4.47715 424 10V94.6808Z" fill="#7027E2"/>
</g>
<defs>
<clipPath id="clip0_6111_355">
<rect width="56" height="64" fill="white"/>
</clipPath>
</defs>
</svg>
